<svg width="62" height="62" viewBox="0 0 62 62" fill="none" xmlns="http://www.w3.org/2000/svg">
<path fill-rule="evenodd" clip-rule="evenodd" d="M31 59.8743C46.9468 59.8743 59.8743 46.9468 59.8743 31C59.8743 15.0532 46.9468 2.12571 31 2.12571C15.0532 2.12571 2.12571 15.0532 2.12571 31C2.12571 46.9468 15.0532 59.8743 31 59.8743ZM31 62C48.1208 62 62 48.1208 62 31C62 13.8792 48.1208 0 31 0C13.8792 0 0 13.8792 0 31C0 48.1208 13.8792 62 31 62Z" fill="url(#paint0_linear)"/>
<path d="M16.0739 20.8164C15.4036 20.8164 14.906 21.0195 14.581 21.4258C14.2763 21.832 14.124 22.3297 14.124 22.9187V25.0515H17.1403C17.5466 25.0515 17.8716 25.1836 18.1153 25.4476C18.3794 25.6914 18.5114 26.0062 18.5114 26.3922C18.5114 26.7781 18.3794 27.0929 18.1153 27.3367C17.8716 27.5804 17.5466 27.7023 17.1403 27.7023H14.124V39.2804C14.124 39.6866 13.9818 40.0319 13.6974 40.3163C13.4333 40.6007 13.088 40.7429 12.6615 40.7429C12.2552 40.7429 11.9099 40.6007 11.6255 40.3163C11.3615 40.0319 11.2294 39.6866 11.2294 39.2804V27.7023H9.34038C8.95445 27.7023 8.62945 27.5804 8.36539 27.3367C8.10133 27.0929 7.9693 26.7781 7.9693 26.3922C7.9693 26.0062 8.10133 25.6914 8.36539 25.4476C8.62945 25.1836 8.95445 25.0515 9.34038 25.0515H11.2294V22.9187C11.2294 21.4969 11.6865 20.3695 12.6005 19.5367C13.5146 18.6836 14.8044 18.257 16.47 18.257C17.1607 18.257 17.77 18.3891 18.2981 18.6531C18.8263 18.8969 19.0903 19.2727 19.0903 19.7805C19.0903 20.1664 18.9685 20.4914 18.7247 20.7555C18.5013 20.9992 18.2271 21.1211 17.9021 21.1211C17.8208 21.1211 17.5974 21.0805 17.2317 20.9992C16.7849 20.8773 16.3989 20.8164 16.0739 20.8164Z" fill="url(#paint1_linear)"/>
<path d="M34.0702 24.564C34.4967 24.564 34.842 24.7062 35.1061 24.9906C35.3905 25.2547 35.5326 25.6101 35.5326 26.057V39.2804C35.5326 39.6866 35.3905 40.0319 35.1061 40.3163C34.842 40.6007 34.4967 40.7429 34.0702 40.7429C33.6436 40.7429 33.2983 40.6108 33.0342 40.3468C32.7702 40.0624 32.6381 39.7069 32.6381 39.2804V38.4882C32.11 39.1991 31.3889 39.8085 30.4749 40.3163C29.5608 40.8038 28.5757 41.0475 27.5194 41.0475C26.1382 41.0475 24.8788 40.6921 23.7413 39.9811C22.6241 39.2702 21.7405 38.2851 21.0905 37.0257C20.4609 35.746 20.146 34.314 20.146 32.7296C20.146 31.1453 20.4609 29.7234 21.0905 28.464C21.7405 27.1843 22.6241 26.189 23.7413 25.4781C24.8585 24.7672 26.0874 24.4117 27.428 24.4117C28.5046 24.4117 29.4999 24.6351 30.4139 25.082C31.3483 25.5289 32.0897 26.0976 32.6381 26.7882V26.057C32.6381 25.6304 32.7702 25.275 33.0342 24.9906C33.2983 24.7062 33.6436 24.564 34.0702 24.564ZM27.8546 38.3663C28.8092 38.3663 29.6522 38.1226 30.3835 37.6351C31.135 37.1476 31.7139 36.4773 32.1202 35.6241C32.5467 34.771 32.76 33.8062 32.76 32.7296C32.76 31.6734 32.5467 30.7187 32.1202 29.8656C31.7139 29.0125 31.135 28.3421 30.3835 27.8546C29.6522 27.3468 28.8092 27.0929 27.8546 27.0929C26.8999 27.0929 26.0468 27.3367 25.2952 27.8242C24.564 28.3117 23.9851 28.982 23.5585 29.8351C23.1522 30.6882 22.9491 31.6531 22.9491 32.7296C22.9491 33.8062 23.1522 34.771 23.5585 35.6241C23.9851 36.4773 24.564 37.1476 25.2952 37.6351C26.0468 38.1226 26.8999 38.3663 27.8546 38.3663Z" fill="url(#paint2_linear)"/>
<path d="M53.8521 32.1507C53.8318 32.5163 53.6795 32.8312 53.3951 33.0952C53.1107 33.339 52.7756 33.4609 52.3896 33.4609H41.6647C41.8069 34.9437 42.3655 36.1319 43.3405 37.0257C44.3358 37.9194 45.5443 38.3663 46.9662 38.3663C47.9412 38.3663 48.7334 38.2241 49.3428 37.9397C49.9521 37.6554 50.4904 37.2897 50.9576 36.8429C51.2623 36.6601 51.5568 36.5687 51.8412 36.5687C52.1865 36.5687 52.4709 36.6905 52.6943 36.9343C52.9381 37.178 53.0599 37.4624 53.0599 37.7874C53.0599 38.214 52.8568 38.5999 52.4506 38.9452C51.8615 39.5343 51.0795 40.0319 50.1045 40.4382C49.1295 40.8444 48.1342 41.0475 47.1186 41.0475C45.4733 41.0475 44.0209 40.7022 42.7616 40.0116C41.5225 39.321 40.5577 38.3561 39.867 37.1171C39.1967 35.878 38.8616 34.4765 38.8616 32.9124C38.8616 31.2062 39.2069 29.7132 39.8975 28.4336C40.6084 27.1336 41.5327 26.1383 42.6701 25.4476C43.828 24.757 45.067 24.4117 46.3873 24.4117C47.6873 24.4117 48.906 24.7469 50.0435 25.4172C51.181 26.0875 52.0951 27.0117 52.7857 28.1898C53.4763 29.3679 53.8318 30.6882 53.8521 32.1507ZM46.3873 27.0929C45.2498 27.0929 44.2647 27.4179 43.4319 28.0679C42.5991 28.6976 42.0506 29.6828 41.7866 31.0234H50.7748V30.7796C50.6732 29.7031 50.1857 28.8195 49.3123 28.1289C48.4592 27.4382 47.4842 27.0929 46.3873 27.0929Z" fill="url(#paint3_linear)"/>
<defs>
<linearGradient id="paint0_linear" x1="59.8743" y1="47.12" x2="1.77143" y2="16.2971" gradientUnits="userSpaceOnUse">
<stop stop-color="#004FC5"/>
<stop offset="0.9999" stop-color="#00C472"/>
</linearGradient>
<linearGradient id="paint1_linear" x1="52.279" y1="35.5778" x2="26.5392" y2="8.08767" gradientUnits="userSpaceOnUse">
<stop stop-color="#004FC5"/>
<stop offset="0.9999" stop-color="#00C472"/>
</linearGradient>
<linearGradient id="paint2_linear" x1="52.279" y1="35.5778" x2="26.5392" y2="8.08767" gradientUnits="userSpaceOnUse">
<stop stop-color="#004FC5"/>
<stop offset="0.9999" stop-color="#00C472"/>
</linearGradient>
<linearGradient id="paint3_linear" x1="52.279" y1="35.5778" x2="26.5392" y2="8.08767" gradientUnits="userSpaceOnUse">
<stop stop-color="#004FC5"/>
<stop offset="0.9999" stop-color="#00C472"/>
</linearGradient>
</defs>
</svg>
